<svg xmlns="http://www.w3.org/2000/svg" xmlns:xlink="http://www.w3.org/1999/xlink" width="500" zoomAndPan="magnify" viewBox="0 0 375 374.999991" height="500" preserveAspectRatio="xMidYMid meet" version="1.0"><defs><g/><clipPath id="ec63cb2cf4"><path d="M 139 176 L 143.316406 176 L 143.316406 182 L 139 182 Z M 139 176 " clip-rule="nonzero"/></clipPath><clipPath id="3414d12fa4"><path d="M 134 166.757812 L 138 166.757812 L 138 171 L 134 171 Z M 134 166.757812 " clip-rule="nonzero"/></clipPath><clipPath id="1c5bc90fa2"><path d="M 127 184 L 128 184 L 128 184.757812 L 127 184.757812 Z M 127 184 " clip-rule="nonzero"/></clipPath><clipPath id="d44ae9c49f"><path d="M 110 178 L 142 178 L 142 184.757812 L 110 184.757812 Z M 110 178 " clip-rule="nonzero"/></clipPath><clipPath id="718da32d38"><path d="M 108.066406 176 L 113 176 L 113 182 L 108.066406 182 Z M 108.066406 176 " clip-rule="nonzero"/></clipPath></defs><path stroke-linecap="butt" transform="matrix(0.263622, 0, 0, 0.263622, 8.334767, 186.530496)" fill="none" stroke-linejoin="miter" d="M 122.946112 167.589978 C 108.736028 167.589978 96.007705 164.582004 84.77596 158.580874 C 73.603486 152.579744 64.757375 143.229835 58.267264 130.531147 C 51.777153 117.832459 48.532097 101.503458 48.532097 81.529326 C 48.532097 63.318489 51.67343 45.952255 57.970912 29.460261 C 64.268394 12.953448 72.921876 -1.701164 83.901721 -14.488757 C 94.940837 -27.291168 107.491349 -37.36714 121.553257 -44.746307 C 135.659617 -52.15511 150.43277 -55.874329 165.857897 -55.874329 C 184.854067 -55.874329 199.093786 -51.962481 208.562236 -44.153603 C 218.089956 -36.389178 222.846407 -26.016854 222.846407 -13.021814 C 222.846407 -4.190521 221.142383 3.944344 217.719516 11.367964 C 214.355919 18.732314 209.910638 25.177973 204.383671 30.704939 C 198.871522 36.172636 193.00375 40.410471 186.809991 43.44808 C 180.601414 46.426419 174.718825 47.908179 169.162223 47.908179 C 164.954023 47.908179 161.857143 46.663501 159.856767 44.174143 C 157.85639 41.640332 157.663761 38.780534 159.264062 35.609567 C 167.028488 20.806779 169.666021 10.123286 167.176664 3.529451 C 164.687306 -3.108836 159.249245 -6.42798 150.847662 -6.42798 C 141.868194 -6.42798 133.703693 -3.627452 126.383796 1.98842 C 119.108352 7.604293 113.373938 14.850102 109.165738 23.740665 C 104.972356 32.631228 102.868256 42.070043 102.868256 52.086744 C 102.868256 61.125483 105.016809 69.349254 109.313915 76.772875 C 113.61102 84.137225 120.115949 90.079084 128.799066 94.568819 C 137.497 99.058553 148.432393 101.310829 161.620062 101.310829 C 171.044059 101.310829 180.586597 99.917974 190.247675 97.132265 C 199.968024 94.302102 207.347192 89.190028 212.37036 81.825678 C 213.926209 79.425226 215.956221 78.580623 218.445578 79.262232 C 220.994206 79.943842 223.083489 81.292244 224.743061 83.292621 C 226.461903 85.292998 226.817525 87.293375 225.854381 89.293751 C 213.244599 114.676309 198.752981 134.087372 182.335074 147.52694 C 165.931985 160.892421 146.135664 167.589978 122.946112 167.589978 Z M 225.869199 164.004118 C 217.230535 164.004118 211.155316 161.040597 207.643544 155.14319 C 204.176224 149.230965 202.442564 141.881433 202.442564 133.094593 C 202.442564 125.478344 203.390891 117.180485 205.287545 108.186198 C 207.199016 99.206729 209.643921 90.419889 212.622259 81.825678 C 222.816772 52.620178 231.470253 28.141494 238.553069 8.359991 C 245.680337 -11.465965 252.540888 -26.431747 259.119905 -36.537354 C 265.71374 -46.642961 273.018819 -51.695764 281.020326 -51.695764 C 287.228903 -51.695764 291.08148 -49.399035 292.592876 -44.820395 C 294.119089 -40.226938 292.652146 -33.114487 288.206865 -23.497861 C 284.443193 -14.90365 280.294263 -6.561338 275.760076 1.543892 C 271.255524 9.649122 268.114192 17.191283 266.306444 24.185193 C 264.735778 30.378952 264.913589 33.890725 266.810242 34.720511 C 268.721713 35.505844 271.255524 34.2908 274.441309 31.060562 C 280.042364 25.696589 285.865683 21.518024 291.866813 18.539685 C 297.867943 15.516894 304.165426 14.005498 310.75926 14.005498 C 319.946175 14.005498 326.732639 16.71712 331.11865 22.125546 C 335.519479 27.504337 337.712484 33.994448 337.712484 41.610697 C 337.712484 46.782041 336.912334 51.523675 335.297215 55.820781 C 333.741366 60.117886 332.155882 64.311269 330.540763 68.415745 C 328.925644 72.520222 328.125494 77.084044 328.125494 82.12203 C 328.125494 92.123914 332.733769 97.132265 341.965137 97.132265 C 346.558595 97.132265 350.381537 95.694957 353.463599 92.805524 C 356.590113 89.871638 359.64254 86.211689 362.620879 81.825678 C 364.235998 79.425226 366.32528 78.580623 368.918361 79.262232 C 371.555895 79.943842 373.704448 81.292244 375.36402 83.292621 C 377.068044 85.292998 377.334761 87.293375 376.16417 89.293751 C 374.163794 92.509172 371.748524 97.176717 368.918361 103.281571 C 366.132651 109.341971 362.783873 115.832083 358.886842 122.766722 C 354.974995 129.642091 350.411172 136.235925 345.180557 142.533407 C 340.009213 148.845707 334.171077 153.987416 327.680965 157.98817 C 321.190854 162.003741 313.841322 164.004118 305.632369 164.004118 C 295.823114 164.004118 288.962562 160.892421 285.050715 154.698661 C 281.198137 148.490085 279.271849 141.199823 279.271849 132.798241 C 279.271849 125.181992 280.472075 117.936182 282.857709 111.045996 C 285.243343 104.155809 287.599343 97.858327 289.881254 92.153549 C 292.177983 86.433953 293.333756 81.573779 293.333756 77.573025 C 293.333756 74.209429 292.281706 71.616348 290.177606 69.8086 C 288.088324 68.000852 285.317432 67.096978 281.909382 67.096978 C 276.145334 67.096978 270.796178 69.571518 265.861916 74.490963 C 260.986923 79.380773 257.030623 85.722708 253.993014 93.546404 C 251.014675 101.310829 249.532914 109.697594 249.532914 118.736333 L 249.532914 132.205536 C 249.532914 137.19907 248.925393 142.14815 247.695531 147.082412 C 246.524941 151.957404 244.228212 156.017428 240.820162 159.232849 C 237.441748 162.418634 232.463033 164.004118 225.869199 164.004118 Z M 387.529274 164.004118 C 377.319943 164.004118 369.599971 159.795918 364.384174 151.409153 C 359.21283 143.007571 356.619749 132.116631 356.619749 118.736333 C 356.619749 110.290298 357.671799 101.325647 359.761081 91.857197 C 361.865181 82.329477 364.962061 72.979568 369.066537 63.80747 C 373.171014 54.620555 378.327541 46.278243 384.5213 38.750899 C 390.729876 31.238373 397.931233 25.237243 406.125368 20.732691 C 414.334322 16.242957 423.639778 14.005498 434.041737 14.005498 C 440.042867 14.005498 444.680778 14.568567 447.955468 15.679888 C 451.274612 16.761573 453.793605 18.095157 455.49763 19.710276 C 457.201654 21.325395 458.638962 22.688615 459.82437 23.814753 C 461.039414 24.881621 462.654533 25.429872 464.65491 25.429872 C 468.018506 25.429872 470.759763 24.466728 472.849045 22.570074 C 474.953145 20.658603 477.294327 18.76195 479.887408 16.850478 C 482.524942 14.953825 486.140438 14.005498 490.719078 14.005498 C 494.734649 14.005498 497.490723 14.998278 499.002119 16.998654 C 500.513515 18.999031 501.269213 21.710653 501.269213 25.13352 C 501.269213 30.704939 499.713364 36.246724 496.586849 41.758873 C 493.504787 47.271022 490.259732 54.427926 486.836865 63.214766 C 481.85815 74.209429 480.005949 82.596194 481.280263 88.419513 C 482.59903 94.228014 486.55533 97.132265 493.149165 97.132265 C 498.320509 97.132265 502.810244 95.783862 506.618368 93.101876 C 510.426493 90.360619 513.84936 86.611765 516.872151 81.825678 C 518.442817 79.425226 520.458012 78.580623 522.947369 79.262232 C 525.495997 79.943842 527.58528 81.292244 529.244852 83.292621 C 530.963694 85.292998 531.319316 87.293375 530.356172 89.293751 C 526.740676 96.272843 522.873281 104.037269 518.783622 112.587027 C 514.679146 121.077515 510.115323 129.227198 505.077337 137.050893 C 500.098622 144.815319 494.408661 151.260977 488.022273 156.387869 C 481.621068 161.45549 474.227083 164.004118 465.825501 164.004118 C 455.423542 164.004118 448.074009 159.795918 443.776904 151.409153 C 439.479798 143.007571 438.235119 132.605612 440.042867 120.203276 L 438.872276 120.203276 C 432.871146 132.412983 425.447526 142.755672 416.601415 151.260977 C 407.814575 159.751465 398.123861 164.004118 387.529274 164.004118 Z M 417.549742 101.888716 C 422.735904 101.888716 427.270091 100.406955 431.181939 97.428617 C 435.078969 94.391008 438.131396 90.731059 440.339219 86.433953 C 442.532225 82.136848 443.628728 77.884195 443.628728 73.690813 C 443.628728 68.712097 442.221055 64.829885 439.376075 62.044175 C 436.605183 59.214012 432.811876 57.791522 428.025789 57.791522 C 422.854445 57.791522 418.36471 59.214012 414.556586 62.044175 C 410.748461 64.829885 407.78494 68.371292 405.695658 72.668398 C 403.591558 76.965504 402.539508 81.307062 402.539508 85.707891 C 402.539508 90.686606 403.88791 94.642907 406.569897 97.561975 C 409.311154 100.451408 412.971102 101.888716 417.549742 101.888716 Z M 540.26915 164.004118 C 529.037405 164.004118 520.754364 160.551616 515.434843 153.676247 C 510.159776 146.741607 507.522242 137.732503 507.522242 126.648934 C 507.522242 115.565366 509.715248 103.622376 514.116077 90.834782 C 516.75361 83.218533 519.657861 75.00958 522.828829 66.22274 C 526.059066 57.376629 529.541204 47.760003 533.304876 37.358044 C 528.904047 37.358044 525.570086 36.217089 523.273357 33.92036 C 520.976628 31.623631 519.465232 28.941644 518.724352 25.859583 C 518.042742 22.733068 518.042742 20.036264 518.724352 17.739535 C 519.465232 15.442806 520.724729 14.287033 522.532476 14.287033 C 531.319316 14.287033 538.209503 11.856945 543.188218 6.967136 C 548.226204 2.032873 551.737977 -3.108836 553.738353 -8.487627 C 557.353849 -17.274467 560.835986 -22.816251 564.2144 -25.11298 C 567.637267 -27.454162 571.237945 -28.624753 575.04607 -28.624753 C 580.661942 -28.624753 584.158897 -26.253936 585.522117 -21.52712 C 586.944607 -16.829939 585.359123 -9.806394 580.765666 -0.426849 C 578.57266 4.40369 577.342799 8.063638 577.105717 10.552996 C 576.913088 13.042354 578.231855 14.287033 581.062018 14.287033 L 596.664956 14.287033 C 598.665333 14.287033 599.954465 15.709523 600.547169 18.539685 C 601.125055 21.325395 601.080603 24.525998 600.398993 28.141494 C 599.717383 31.697719 598.413434 34.898322 596.51678 37.728484 C 594.605309 40.514194 592.145587 41.907049 589.107977 41.907049 C 579.93588 41.907049 573.149416 42.277489 568.748588 43.003552 C 564.362576 43.685162 561.250879 45.418822 559.457949 48.204531 C 557.650201 50.990241 555.73873 55.791145 553.738353 62.636879 C 550.522933 73.038838 550.952644 81.336697 555.05712 87.530456 C 559.161597 93.69458 565.622073 96.761824 574.468183 96.761824 C 580.469314 96.761824 585.818469 95.42824 590.500832 92.731436 C 595.198013 90.049449 599.020955 86.419136 601.999294 81.825678 C 603.614413 79.425226 605.67406 78.580623 608.163418 79.262232 C 610.697229 79.943842 612.801329 81.292244 614.4609 83.292621 C 616.164925 85.292998 616.535365 87.293375 615.557403 89.293751 C 613.749655 92.716618 611.334386 97.428617 608.296776 103.429747 C 605.318438 109.386424 601.732577 115.876535 597.539195 122.914898 C 593.330995 129.89399 588.426368 136.487824 582.810495 142.681584 C 577.253893 148.89016 570.89714 153.987416 563.769872 157.98817 C 556.687057 162.003741 548.848544 164.004118 540.26915 164.004118 Z M 626.922506 164.004118 C 616.727994 164.004118 609.008022 159.795918 603.777407 151.409153 C 598.606063 143.007571 596.012982 132.116631 596.012982 118.736333 C 596.012982 110.290298 597.065032 101.325647 599.169132 91.857197 C 601.273232 82.329477 604.370111 72.979568 608.474588 63.80747 C 612.564247 54.620555 617.720774 46.278243 623.92935 38.750899 C 630.123109 31.238373 637.324465 25.237243 645.533419 20.732691 C 653.727555 16.242957 663.033011 14.005498 673.43497 14.005498 C 679.4361 14.005498 684.07401 14.568567 687.348701 15.679888 C 690.667845 16.761573 693.186838 18.095157 694.890862 19.710276 C 696.609705 21.325395 698.047012 22.688615 699.217603 23.814753 C 700.432647 24.881621 702.047766 25.429872 704.048143 25.429872 C 707.426557 25.429872 710.152996 24.466728 712.257096 22.570074 C 714.346378 20.658603 716.702378 18.76195 719.280641 16.850478 C 721.918175 14.953825 725.53367 14.005498 730.127128 14.005498 C 734.127882 14.005498 736.883956 14.998278 738.395352 16.998654 C 739.921565 18.999031 740.677263 21.710653 740.677263 25.13352 C 740.677263 30.704939 739.106597 36.246724 735.980082 41.758873 C 732.912838 47.271022 729.667782 54.427926 726.244915 63.214766 C 721.2662 74.209429 719.413999 82.596194 720.673496 88.419513 C 721.992263 94.228014 725.948563 97.132265 732.542398 97.132265 C 737.713742 97.132265 742.203476 95.783862 746.011601 93.101876 C 749.834543 90.360619 753.242593 86.611765 756.265384 81.825678 C 757.83605 79.425226 759.866062 78.580623 762.35542 79.262232 C 764.88923 79.943842 766.99333 81.292244 768.652902 83.292621 C 770.356927 85.292998 770.727367 87.293375 769.749405 89.293751 C 766.133909 96.272843 762.281332 104.037269 758.176855 112.587027 C 754.072378 121.077515 749.508556 129.227198 744.485388 137.050893 C 739.506672 144.815319 733.816712 151.260977 727.415506 156.387869 C 721.014301 161.45549 713.620316 164.004118 705.218733 164.004118 C 694.816774 164.004118 687.467242 159.795918 683.170137 151.409153 C 678.873031 143.007571 677.628352 132.605612 679.4361 120.203276 L 678.265509 120.203276 C 672.264379 132.412983 664.840759 142.755672 656.009466 151.260977 C 647.207808 159.751465 637.517094 164.004118 626.922506 164.004118 Z M 656.957793 101.888716 C 662.129137 101.888716 666.678142 100.406955 670.575172 97.428617 C 674.48702 94.391008 677.539447 90.731059 679.732452 86.433953 C 681.925458 82.136848 683.036778 77.884195 683.036778 73.690813 C 683.036778 68.712097 681.614288 64.829885 678.784125 62.044175 C 675.998416 59.214012 672.219926 57.791522 667.43384 57.791522 C 662.247678 57.791522 657.757943 59.214012 653.949819 62.044175 C 650.141694 64.829885 647.192991 68.371292 645.088891 72.668398 C 642.984791 76.965504 641.947558 81.307062 641.947558 85.707891 C 641.947558 90.686606 643.281143 94.642907 645.963129 97.561975 C 648.704386 100.451408 652.364335 101.888716 656.957793 101.888716 Z M 893.046699 81.825678 C 894.261743 80.01793 896.158397 79.351138 898.751478 79.840119 C 901.344559 80.3291 903.582017 81.425603 905.493488 83.144445 C 907.390142 84.84847 907.730946 86.893299 906.515903 89.293751 C 903.730193 95.294881 900.09988 101.355282 895.610145 107.460135 C 891.105593 113.564989 885.548991 118.765968 878.910704 123.063074 C 872.31687 127.36018 864.226457 129.790267 854.669101 130.382971 C 847.245481 140.592301 838.725358 148.741984 829.093915 154.846838 C 819.536559 160.951691 809.831028 164.004118 800.021773 164.004118 C 787.619437 164.004118 777.173025 160.418257 768.682537 153.231719 C 760.177232 146.000727 754.635447 136.191472 752.042366 123.789137 C 749.464103 111.386801 750.856958 97.398981 756.220931 81.825678 C 760.62176 69.230714 764.726237 57.480352 768.534361 46.589412 C 772.342486 35.65402 775.854258 25.696589 779.069679 16.71712 C 787.234179 -5.894546 794.702252 -22.934792 801.488716 -34.418436 C 808.319632 -45.931716 816.039604 -51.695764 824.633815 -51.695764 C 830.827574 -51.695764 834.739422 -49.458306 836.354541 -44.953754 C 837.96966 -40.464019 836.443447 -33.307116 831.805536 -23.497861 C 828.056682 -14.90365 824.411551 -6.561338 820.899779 1.543892 C 817.388006 9.649122 814.720837 17.191283 812.913089 24.185193 C 812.320385 26.18557 813.03163 27.504337 815.032007 28.141494 C 817.032384 28.71938 819.047578 28.008135 821.047955 26.007759 C 825.241337 21.621747 829.538443 18.51005 833.939272 16.71712 C 838.325283 14.909372 842.237131 14.005498 845.659997 14.005498 C 855.85451 14.005498 863.841199 17.250554 869.605248 23.740665 C 875.413749 30.230776 878.318 41.195804 878.318 56.620931 C 878.318 63.407395 877.754931 70.104952 876.628793 76.698787 C 875.561925 83.292621 874.020894 89.679009 872.020517 95.887586 C 876.021271 95.294881 879.784943 93.902027 883.296715 91.709021 C 886.808488 89.516015 890.068361 86.211689 893.046699 81.825678 Z M 796.13956 85.707891 C 796.13956 90.093902 797.339786 93.902027 799.725421 97.132265 C 802.125873 100.303232 806.126626 101.888716 811.742499 101.888716 C 816.721214 101.888716 821.122043 100.406955 824.930167 97.428617 C 828.738292 94.391008 831.731448 90.731059 833.939272 86.433953 C 836.132277 82.136848 837.22878 77.884195 837.22878 73.690813 C 837.22878 69.304802 835.939648 65.555947 833.346567 62.488703 C 830.753486 59.362188 826.560104 57.791522 820.751603 57.791522 C 815.965516 57.791522 811.712863 59.214012 808.008462 62.044175 C 804.289243 64.829885 801.384992 68.371292 799.29571 72.668398 C 797.19161 76.965504 796.13956 81.307062 796.13956 85.707891 Z M 917.925459 164.004118 C 907.716129 164.004118 900.010974 159.795918 894.780359 151.409153 C 889.609015 143.007571 887.015934 132.116631 887.015934 118.736333 C 887.015934 110.290298 888.067984 101.325647 890.172084 91.857197 C 892.261366 82.329477 895.373064 72.979568 899.462723 63.80747 C 903.567199 54.620555 908.723726 46.278243 914.917485 38.750899 C 921.126062 31.238373 928.327418 25.237243 936.536371 20.732691 C 944.730507 16.242957 954.035963 14.005498 964.437922 14.005498 C 970.439053 14.005498 975.076963 14.568567 978.351654 15.679888 C 981.670797 16.761573 984.18979 18.095157 985.893815 19.710276 C 987.59784 21.325395 989.049965 22.688615 990.220556 23.814753 C 991.435599 24.881621 993.050718 25.429872 995.051095 25.429872 C 998.414692 25.429872 1001.155949 24.466728 1003.260048 22.570074 C 1005.349331 20.658603 1007.690512 18.76195 1010.283593 16.850478 C 1012.921127 14.953825 1016.536623 14.005498 1021.130081 14.005498 C 1025.130834 14.005498 1027.886909 14.998278 1029.398304 16.998654 C 1030.9097 18.999031 1031.665398 21.710653 1031.665398 25.13352 C 1031.665398 30.704939 1030.109549 36.246724 1026.983035 41.758873 C 1023.900973 47.271022 1020.655917 54.427926 1017.247868 63.214766 C 1012.269153 74.209429 1010.402134 82.596194 1011.676448 88.419513 C 1012.995215 94.228014 1016.951516 97.132265 1023.54535 97.132265 C 1028.716695 97.132265 1033.206429 95.783862 1037.014554 93.101876 C 1040.822678 90.360619 1044.245545 86.611765 1047.268337 81.825678 C 1048.839003 79.425226 1050.854197 78.580623 1053.358372 79.262232 C 1055.892183 79.943842 1057.996283 81.292244 1059.655855 83.292621 C 1061.359879 85.292998 1061.730319 87.293375 1060.752357 89.293751 C 1057.136862 96.272843 1053.284284 104.037269 1049.179808 112.587027 C 1045.075331 121.077515 1040.511508 129.227198 1035.473523 137.050893 C 1030.494807 144.815319 1024.804847 151.260977 1018.418459 156.387869 C 1012.017253 161.45549 1004.623268 164.004118 996.221686 164.004118 C 985.819727 164.004118 978.470195 159.795918 974.173089 151.409153 C 969.875983 143.007571 968.631305 132.605612 970.439053 120.203276 L 969.268462 120.203276 C 963.267331 132.412983 955.843711 142.755672 946.997601 151.260977 C 938.210761 159.751465 928.520047 164.004118 917.925459 164.004118 Z M 947.960745 101.888716 C 953.132089 101.888716 957.666277 100.406955 961.578124 97.428617 C 965.489972 94.391008 968.542399 90.731059 970.735405 86.433953 C 972.92841 82.136848 974.024913 77.884195 974.024913 73.690813 C 974.024913 68.712097 972.61724 64.829885 969.787078 62.044175 C 967.001368 59.214012 963.208061 57.791522 958.421975 57.791522 C 953.25063 57.791522 948.760896 59.214012 944.952771 62.044175 C 941.144647 64.829885 938.195943 68.371292 936.091843 72.668398 C 933.987743 76.965504 932.935693 81.307062 932.935693 85.707891 C 932.935693 90.686606 934.284095 94.642907 936.966082 97.561975 C 939.707339 100.451408 943.367287 101.888716 947.960745 101.888716 Z M 1184.034834 81.825678 C 1185.264696 80.01793 1187.161349 79.351138 1189.75443 79.840119 C 1192.347511 80.3291 1194.584969 81.425603 1196.496441 83.144445 C 1198.393094 84.84847 1198.733899 86.893299 1197.518855 89.293751 C 1194.733145 95.294881 1191.102832 101.355282 1186.59828 107.460135 C 1182.108546 113.564989 1176.551944 118.765968 1169.898839 123.063074 C 1163.319822 127.36018 1155.229409 129.790267 1145.657236 130.382971 C 1138.233616 140.592301 1129.713493 148.741984 1120.096867 154.846838 C 1110.524694 160.951691 1100.83398 164.004118 1091.024725 164.004118 C 1078.62239 164.004118 1068.175978 160.418257 1059.670672 153.231719 C 1051.180184 146.000727 1045.6384 136.191472 1043.045319 123.789137 C 1040.467056 111.386801 1041.859911 97.398981 1047.223884 81.825678 C 1051.624713 69.230714 1055.714372 57.480352 1059.522496 46.589412 C 1063.330621 35.65402 1066.857211 25.696589 1070.072631 16.71712 C 1078.222314 -5.894546 1085.705205 -22.934792 1092.491668 -34.418436 C 1099.322584 -45.931716 1107.042557 -51.695764 1115.636768 -51.695764 C 1121.830527 -51.695764 1125.742375 -49.458306 1127.357494 -44.953754 C 1128.957795 -40.464019 1127.446399 -33.307116 1122.808489 -23.497861 C 1119.044817 -14.90365 1115.414504 -6.561338 1111.902731 1.543892 C 1108.376141 9.649122 1105.72379 17.191283 1103.916042 24.185193 C 1103.323338 26.18557 1104.034583 27.504337 1106.03496 28.141494 C 1108.035336 28.71938 1110.035713 28.008135 1112.03609 26.007759 C 1116.24429 21.621747 1120.541395 18.51005 1124.927406 16.71712 C 1129.328235 14.909372 1133.240083 14.005498 1136.648132 14.005498 C 1146.857462 14.005498 1154.844152 17.250554 1160.6082 23.740665 C 1166.416702 30.230776 1169.320952 41.195804 1169.320952 56.620931 C 1169.320952 63.407395 1168.757883 70.104952 1167.631745 76.698787 C 1166.564878 83.292621 1165.023847 89.679009 1163.02347 95.887586 C 1167.024223 95.294881 1170.787895 93.902027 1174.299668 91.709021 C 1177.81144 89.516015 1181.056496 86.211689 1184.034834 81.825678 Z M 1087.142513 85.707891 C 1087.142513 90.093902 1088.342739 93.902027 1090.728373 97.132265 C 1093.128825 100.303232 1097.129579 101.888716 1102.745451 101.888716 C 1107.724167 101.888716 1112.110178 100.406955 1115.918302 97.428617 C 1119.726427 94.391008 1122.734401 90.731059 1124.927406 86.433953 C 1127.13523 82.136848 1128.231732 77.884195 1128.231732 73.690813 C 1128.231732 69.304802 1126.942601 65.555947 1124.34952 62.488703 C 1121.756439 59.362188 1117.563057 57.791522 1111.754555 57.791522 C 1106.968469 57.791522 1102.715816 59.214012 1099.011415 62.044175 C 1095.292196 64.829885 1092.387945 68.371292 1090.283845 72.668398 C 1088.194563 76.965504 1087.142513 81.307062 1087.142513 85.707891 Z M 1233.540454 164.004118 C 1221.523376 164.004118 1211.654851 161.307314 1203.949696 155.94334 C 1196.274176 150.520097 1190.584216 143.363193 1186.879815 134.487448 C 1183.175413 125.552432 1181.367665 115.728359 1181.456571 105.044866 C 1181.560294 94.346555 1183.412495 83.648244 1187.027991 72.96475 C 1190.643486 62.266439 1195.844466 52.472002 1202.630929 43.596256 C 1209.417392 34.66124 1217.670799 27.504337 1227.37633 22.125546 C 1237.096679 16.71712 1248.061707 14.005498 1260.271414 14.005498 C 1269.650958 14.005498 1277.282025 15.753976 1283.19425 19.280566 C 1289.106474 22.733068 1293.448033 27.385796 1296.233742 33.194297 C 1299.019452 39.002799 1300.412307 45.196558 1300.412307 51.790392 C 1300.412307 59.021383 1298.397113 66.22274 1294.396359 73.394461 C 1290.440059 80.580999 1284.853822 86.537677 1277.62283 91.264493 C 1270.451109 95.961674 1261.945804 98.302855 1252.136549 98.302855 C 1247.943166 98.302855 1243.83869 98.006503 1239.837936 97.428617 C 1235.837183 96.79146 1232.147599 95.472693 1228.769185 93.472316 C 1227.74677 92.879612 1226.620632 92.864794 1225.405589 93.398228 C 1224.234998 93.887209 1223.642294 95.131888 1223.642294 97.132265 C 1223.642294 102.303609 1226.69472 106.259909 1232.799574 109.001166 C 1238.904427 111.683153 1246.253959 113.016738 1254.848171 113.016738 C 1265.057501 113.016738 1275.607636 110.438474 1286.483758 105.26713 C 1297.374698 100.036515 1306.220809 92.227637 1313.007272 81.825678 C 1314.607573 79.425226 1316.711673 78.580623 1319.304754 79.262232 C 1321.942288 79.943842 1324.090841 81.292244 1325.750412 83.292621 C 1327.454437 85.292998 1327.721154 87.293375 1326.550563 89.293751 C 1313.318442 113.713165 1298.841641 132.264807 1283.120162 144.963495 C 1267.443135 157.647365 1250.921505 164.004118 1233.540454 164.004118 Z M 1244.372124 75.80973 C 1250.136172 75.80973 1254.655542 73.95753 1257.930233 70.253128 C 1261.249376 66.533909 1262.908948 62.785055 1262.908948 58.976931 C 1262.908948 55.598517 1261.753175 52.723901 1259.456446 50.323449 C 1257.174535 47.893362 1253.722033 46.663501 1249.128575 46.663501 C 1243.320074 46.663501 1238.711798 48.471248 1235.288931 52.086744 C 1231.925335 55.70224 1230.236128 59.510364 1230.236128 63.511118 C 1230.236128 66.682085 1231.391901 69.541883 1233.68863 72.075694 C 1235.970541 74.565051 1239.541584 75.80973 1244.372124 75.80973 Z M 1244.372124 75.80973 " stroke="#ffd700" stroke-width="29.625" stroke-opacity="1" stroke-miterlimit="4"/><g fill="#ff66c4" fill-opacity="1"><g transform="translate(18.521294, 229.764539)"><g><path d="M 22.21875 0.953125 C 18.476562 0.953125 15.128906 0.160156 12.171875 -1.421875 C 9.222656 -3.003906 6.890625 -5.46875 5.171875 -8.8125 C 3.460938 -12.164062 2.609375 -16.476562 2.609375 -21.75 C 2.609375 -26.550781 3.4375 -31.125 5.09375 -35.46875 C 6.757812 -39.820312 9.039062 -43.6875 11.9375 -47.0625 C 14.84375 -50.4375 18.15625 -53.097656 21.875 -55.046875 C 25.59375 -56.992188 29.476562 -57.96875 33.53125 -57.96875 C 38.539062 -57.96875 42.296875 -56.941406 44.796875 -54.890625 C 47.304688 -52.835938 48.5625 -50.097656 48.5625 -46.671875 C 48.5625 -44.347656 48.113281 -42.207031 47.21875 -40.25 C 46.320312 -38.300781 45.148438 -36.601562 43.703125 -35.15625 C 42.253906 -33.707031 40.710938 -32.585938 39.078125 -31.796875 C 37.441406 -31.003906 35.882812 -30.609375 34.40625 -30.609375 C 33.300781 -30.609375 32.484375 -30.9375 31.953125 -31.59375 C 31.421875 -32.257812 31.367188 -33.015625 31.796875 -33.859375 C 33.847656 -37.753906 34.546875 -40.570312 33.890625 -42.3125 C 33.234375 -44.050781 31.796875 -44.921875 29.578125 -44.921875 C 27.203125 -44.921875 25.050781 -44.179688 23.125 -42.703125 C 21.207031 -41.234375 19.691406 -39.320312 18.578125 -36.96875 C 17.472656 -34.625 16.921875 -32.132812 16.921875 -29.5 C 16.921875 -27.125 17.488281 -24.960938 18.625 -23.015625 C 19.757812 -21.066406 21.472656 -19.5 23.765625 -18.3125 C 26.054688 -17.125 28.941406 -16.53125 32.421875 -16.53125 C 34.898438 -16.53125 37.414062 -16.898438 39.96875 -17.640625 C 42.53125 -18.378906 44.472656 -19.722656 45.796875 -21.671875 C 46.210938 -22.304688 46.75 -22.53125 47.40625 -22.34375 C 48.070312 -22.15625 48.628906 -21.796875 49.078125 -21.265625 C 49.523438 -20.742188 49.617188 -20.21875 49.359375 -19.6875 C 46.035156 -13 42.210938 -7.882812 37.890625 -4.34375 C 33.566406 -0.8125 28.34375 0.953125 22.21875 0.953125 Z M 22.21875 0.953125 "/></g></g></g><g fill="#ff66c4" fill-opacity="1"><g transform="translate(62.493405, 229.764539)"><g><path d="M 5.375 0 C 3.113281 0 1.519531 -0.773438 0.59375 -2.328125 C -0.332031 -3.890625 -0.796875 -5.828125 -0.796875 -8.140625 C -0.796875 -10.148438 -0.539062 -12.335938 -0.03125 -14.703125 C 0.46875 -17.078125 1.109375 -19.398438 1.890625 -21.671875 C 4.585938 -29.367188 6.867188 -35.828125 8.734375 -41.046875 C 10.609375 -46.265625 12.414062 -50.207031 14.15625 -52.875 C 15.894531 -55.539062 17.820312 -56.875 19.9375 -56.875 C 21.570312 -56.875 22.582031 -56.265625 22.96875 -55.046875 C 23.363281 -53.835938 22.984375 -51.96875 21.828125 -49.4375 C 20.828125 -47.164062 19.734375 -44.960938 18.546875 -42.828125 C 17.359375 -40.691406 16.53125 -38.703125 16.0625 -36.859375 C 15.632812 -35.222656 15.671875 -34.296875 16.171875 -34.078125 C 16.671875 -33.867188 17.34375 -34.1875 18.1875 -35.03125 C 19.664062 -36.457031 21.195312 -37.566406 22.78125 -38.359375 C 24.363281 -39.148438 26.023438 -39.546875 27.765625 -39.546875 C 30.191406 -39.546875 31.984375 -38.832031 33.140625 -37.40625 C 34.296875 -35.988281 34.875 -34.273438 34.875 -32.265625 C 34.875 -30.898438 34.660156 -29.648438 34.234375 -28.515625 C 33.816406 -27.378906 33.394531 -26.269531 32.96875 -25.1875 C 32.550781 -24.101562 32.34375 -22.90625 32.34375 -21.59375 C 32.34375 -18.957031 33.554688 -17.640625 35.984375 -17.640625 C 37.203125 -17.640625 38.21875 -18.019531 39.03125 -18.78125 C 39.851562 -19.550781 40.65625 -20.515625 41.4375 -21.671875 C 41.863281 -22.304688 42.421875 -22.53125 43.109375 -22.34375 C 43.796875 -22.15625 44.363281 -21.796875 44.8125 -21.265625 C 45.257812 -20.742188 45.320312 -20.21875 45 -19.6875 C 44.476562 -18.84375 43.847656 -17.617188 43.109375 -16.015625 C 42.367188 -14.410156 41.484375 -12.695312 40.453125 -10.875 C 39.429688 -9.050781 38.234375 -7.304688 36.859375 -5.640625 C 35.484375 -3.984375 33.9375 -2.628906 32.21875 -1.578125 C 30.507812 -0.523438 28.578125 0 26.421875 0 C 23.835938 0 22.03125 -0.816406 21 -2.453125 C 19.96875 -4.085938 19.453125 -6.007812 19.453125 -8.21875 C 19.453125 -10.226562 19.769531 -12.140625 20.40625 -13.953125 C 21.039062 -15.773438 21.660156 -17.4375 22.265625 -18.9375 C 22.867188 -20.445312 23.171875 -21.726562 23.171875 -22.78125 C 23.171875 -23.675781 22.894531 -24.359375 22.34375 -24.828125 C 21.789062 -25.304688 21.066406 -25.546875 20.171875 -25.546875 C 18.640625 -25.546875 17.226562 -24.898438 15.9375 -23.609375 C 14.644531 -22.316406 13.601562 -20.640625 12.8125 -18.578125 C 12.019531 -16.523438 11.625 -14.3125 11.625 -11.9375 L 11.625 -8.390625 C 11.625 -7.066406 11.460938 -5.757812 11.140625 -4.46875 C 10.828125 -3.175781 10.222656 -2.109375 9.328125 -1.265625 C 8.429688 -0.421875 7.113281 0 5.375 0 Z M 5.375 0 "/></g></g></g><g fill="#ff66c4" fill-opacity="1"><g transform="translate(102.115764, 229.764539)"><g><path d="M 8.390625 0 C 5.691406 0 3.65625 -1.101562 2.28125 -3.3125 C 0.914062 -5.53125 0.234375 -8.40625 0.234375 -11.9375 C 0.234375 -14.15625 0.507812 -16.515625 1.0625 -19.015625 C 1.613281 -21.523438 2.429688 -23.992188 3.515625 -26.421875 C 4.597656 -28.847656 5.957031 -31.046875 7.59375 -33.015625 C 9.226562 -34.992188 11.125 -36.578125 13.28125 -37.765625 C 15.445312 -38.953125 17.898438 -39.546875 20.640625 -39.546875 C 22.222656 -39.546875 23.445312 -39.398438 24.3125 -39.109375 C 25.1875 -38.816406 25.847656 -38.457031 26.296875 -38.03125 C 26.742188 -37.613281 27.125 -37.257812 27.4375 -36.96875 C 27.757812 -36.6875 28.1875 -36.546875 28.71875 -36.546875 C 29.613281 -36.546875 30.335938 -36.796875 30.890625 -37.296875 C 31.441406 -37.796875 32.054688 -38.296875 32.734375 -38.796875 C 33.421875 -39.296875 34.375 -39.546875 35.59375 -39.546875 C 36.644531 -39.546875 37.367188 -39.28125 37.765625 -38.75 C 38.160156 -38.226562 38.359375 -37.519531 38.359375 -36.625 C 38.359375 -35.144531 37.945312 -33.679688 37.125 -32.234375 C 36.3125 -30.785156 35.457031 -28.898438 34.5625 -26.578125 C 33.25 -23.671875 32.757812 -21.453125 33.09375 -19.921875 C 33.4375 -18.398438 34.476562 -17.640625 36.21875 -17.640625 C 37.59375 -17.640625 38.78125 -17.992188 39.78125 -18.703125 C 40.78125 -19.410156 41.675781 -20.398438 42.46875 -21.671875 C 42.894531 -22.304688 43.4375 -22.53125 44.09375 -22.34375 C 44.75 -22.15625 45.300781 -21.796875 45.75 -21.265625 C 46.195312 -20.742188 46.289062 -20.21875 46.03125 -19.6875 C 45.082031 -17.84375 44.066406 -15.800781 42.984375 -13.5625 C 41.898438 -11.320312 40.695312 -9.171875 39.375 -7.109375 C 38.0625 -5.054688 36.5625 -3.359375 34.875 -2.015625 C 33.1875 -0.671875 31.238281 0 29.03125 0 C 26.289062 0 24.351562 -1.101562 23.21875 -3.3125 C 22.082031 -5.53125 21.75 -8.273438 22.21875 -11.546875 L 21.90625 -11.546875 C 20.320312 -8.328125 18.367188 -5.597656 16.046875 -3.359375 C 13.734375 -1.117188 11.179688 0 8.390625 0 Z M 16.296875 -16.375 C 17.660156 -16.375 18.859375 -16.769531 19.890625 -17.5625 C 20.921875 -18.351562 21.722656 -19.3125 22.296875 -20.4375 C 22.878906 -21.570312 23.171875 -22.695312 23.171875 -23.8125 C 23.171875 -25.125 22.800781 -26.148438 22.0625 -26.890625 C 21.320312 -27.628906 20.320312 -28 19.0625 -28 C 17.6875 -28 16.5 -27.628906 15.5 -26.890625 C 14.5 -26.148438 13.722656 -25.210938 13.171875 -24.078125 C 12.617188 -22.953125 12.34375 -21.804688 12.34375 -20.640625 C 12.34375 -19.328125 12.695312 -18.285156 13.40625 -17.515625 C 14.113281 -16.753906 15.078125 -16.375 16.296875 -16.375 Z M 16.296875 -16.375 "/></g></g></g><g fill="#ff66c4" fill-opacity="1"><g transform="translate(142.766249, 229.764539)"><g><path d="M 7.984375 0 C 5.035156 0 2.863281 -0.90625 1.46875 -2.71875 C 0.0703125 -4.539062 -0.625 -6.914062 -0.625 -9.84375 C -0.625 -12.769531 -0.046875 -15.921875 1.109375 -19.296875 C 1.796875 -21.296875 2.5625 -23.457031 3.40625 -25.78125 C 4.25 -28.101562 5.171875 -30.632812 6.171875 -33.375 C 5.003906 -33.375 4.117188 -33.675781 3.515625 -34.28125 C 2.910156 -34.894531 2.515625 -35.609375 2.328125 -36.421875 C 2.148438 -37.242188 2.148438 -37.957031 2.328125 -38.5625 C 2.515625 -39.164062 2.847656 -39.46875 3.328125 -39.46875 C 5.640625 -39.46875 7.453125 -40.113281 8.765625 -41.40625 C 10.085938 -42.695312 11.015625 -44.054688 11.546875 -45.484375 C 12.492188 -47.796875 13.414062 -49.253906 14.3125 -49.859375 C 15.207031 -50.472656 16.15625 -50.78125 17.15625 -50.78125 C 18.632812 -50.78125 19.554688 -50.160156 19.921875 -48.921875 C 20.296875 -47.679688 19.878906 -45.820312 18.671875 -43.34375 C 18.085938 -42.070312 17.769531 -41.109375 17.71875 -40.453125 C 17.664062 -39.796875 18.007812 -39.46875 18.75 -39.46875 L 22.859375 -39.46875 C 23.390625 -39.46875 23.734375 -39.097656 23.890625 -38.359375 C 24.046875 -37.617188 24.03125 -36.773438 23.84375 -35.828125 C 23.65625 -34.878906 23.3125 -34.035156 22.8125 -33.296875 C 22.3125 -32.554688 21.664062 -32.1875 20.875 -32.1875 C 18.457031 -32.1875 16.664062 -32.09375 15.5 -31.90625 C 14.34375 -31.726562 13.523438 -31.269531 13.046875 -30.53125 C 12.578125 -29.789062 12.078125 -28.523438 11.546875 -26.734375 C 10.703125 -23.992188 10.820312 -21.804688 11.90625 -20.171875 C 12.988281 -18.535156 14.6875 -17.71875 17 -17.71875 C 18.582031 -17.71875 19.992188 -18.070312 21.234375 -18.78125 C 22.472656 -19.5 23.488281 -20.460938 24.28125 -21.671875 C 24.707031 -22.304688 25.25 -22.53125 25.90625 -22.34375 C 26.5625 -22.15625 27.113281 -21.796875 27.5625 -21.265625 C 28.007812 -20.742188 28.101562 -20.21875 27.84375 -19.6875 C 27.363281 -18.789062 26.726562 -17.550781 25.9375 -15.96875 C 25.144531 -14.394531 24.195312 -12.679688 23.09375 -10.828125 C 21.988281 -8.984375 20.695312 -7.242188 19.21875 -5.609375 C 17.738281 -3.972656 16.0625 -2.628906 14.1875 -1.578125 C 12.320312 -0.523438 10.253906 0 7.984375 0 Z M 7.984375 0 "/></g></g></g><g fill="#ff66c4" fill-opacity="1"><g transform="translate(165.226817, 229.764539)"><g><path d="M 8.390625 0 C 5.691406 0 3.65625 -1.101562 2.28125 -3.3125 C 0.914062 -5.53125 0.234375 -8.40625 0.234375 -11.9375 C 0.234375 -14.15625 0.507812 -16.515625 1.0625 -19.015625 C 1.613281 -21.523438 2.429688 -23.992188 3.515625 -26.421875 C 4.597656 -28.847656 5.957031 -31.046875 7.59375 -33.015625 C 9.226562 -34.992188 11.125 -36.578125 13.28125 -37.765625 C 15.445312 -38.953125 17.898438 -39.546875 20.640625 -39.546875 C 22.222656 -39.546875 23.445312 -39.398438 24.3125 -39.109375 C 25.1875 -38.816406 25.847656 -38.457031 26.296875 -38.03125 C 26.742188 -37.613281 27.125 -37.257812 27.4375 -36.96875 C 27.757812 -36.6875 28.1875 -36.546875 28.71875 -36.546875 C 29.613281 -36.546875 30.335938 -36.796875 30.890625 -37.296875 C 31.441406 -37.796875 32.054688 -38.296875 32.734375 -38.796875 C 33.421875 -39.296875 34.375 -39.546875 35.59375 -39.546875 C 36.644531 -39.546875 37.367188 -39.28125 37.765625 -38.75 C 38.160156 -38.226562 38.359375 -37.519531 38.359375 -36.625 C 38.359375 -35.144531 37.945312 -33.679688 37.125 -32.234375 C 36.3125 -30.785156 35.457031 -28.898438 34.5625 -26.578125 C 33.25 -23.671875 32.757812 -21.453125 33.09375 -19.921875 C 33.4375 -18.398438 34.476562 -17.640625 36.21875 -17.640625 C 37.59375 -17.640625 38.78125 -17.992188 39.78125 -18.703125 C 40.78125 -19.410156 41.675781 -20.398438 42.46875 -21.671875 C 42.894531 -22.304688 43.4375 -22.53125 44.09375 -22.34375 C 44.75 -22.15625 45.300781 -21.796875 45.75 -21.265625 C 46.195312 -20.742188 46.289062 -20.21875 46.03125 -19.6875 C 45.082031 -17.84375 44.066406 -15.800781 42.984375 -13.5625 C 41.898438 -11.320312 40.695312 -9.171875 39.375 -7.109375 C 38.0625 -5.054688 36.5625 -3.359375 34.875 -2.015625 C 33.1875 -0.671875 31.238281 0 29.03125 0 C 26.289062 0 24.351562 -1.101562 23.21875 -3.3125 C 22.082031 -5.53125 21.75 -8.273438 22.21875 -11.546875 L 21.90625 -11.546875 C 20.320312 -8.328125 18.367188 -5.597656 16.046875 -3.359375 C 13.734375 -1.117188 11.179688 0 8.390625 0 Z M 16.296875 -16.375 C 17.660156 -16.375 18.859375 -16.769531 19.890625 -17.5625 C 20.921875 -18.351562 21.722656 -19.3125 22.296875 -20.4375 C 22.878906 -21.570312 23.171875 -22.695312 23.171875 -23.8125 C 23.171875 -25.125 22.800781 -26.148438 22.0625 -26.890625 C 21.320312 -27.628906 20.320312 -28 19.0625 -28 C 17.6875 -28 16.5 -27.628906 15.5 -26.890625 C 14.5 -26.148438 13.722656 -25.210938 13.171875 -24.078125 C 12.617188 -22.953125 12.34375 -21.804688 12.34375 -20.640625 C 12.34375 -19.328125 12.695312 -18.285156 13.40625 -17.515625 C 14.113281 -16.753906 15.078125 -16.375 16.296875 -16.375 Z M 16.296875 -16.375 "/></g></g></g><g fill="#ff66c4" fill-opacity="1"><g transform="translate(205.877302, 229.764539)"><g><path d="M 37.890625 -21.671875 C 38.203125 -22.148438 38.703125 -22.320312 39.390625 -22.1875 C 40.078125 -22.050781 40.671875 -21.757812 41.171875 -21.3125 C 41.671875 -20.863281 41.757812 -20.320312 41.4375 -19.6875 C 40.707031 -18.113281 39.75 -16.519531 38.5625 -14.90625 C 37.375 -13.300781 35.910156 -11.929688 34.171875 -10.796875 C 32.429688 -9.660156 30.296875 -9.015625 27.765625 -8.859375 C 25.804688 -6.171875 23.5625 -4.019531 21.03125 -2.40625 C 18.507812 -0.800781 15.953125 0 13.359375 0 C 10.097656 0 7.34375 -0.945312 5.09375 -2.84375 C 2.851562 -4.738281 1.390625 -7.320312 0.703125 -10.59375 C 0.0234375 -13.863281 0.394531 -17.554688 1.8125 -21.671875 C 2.976562 -24.992188 4.0625 -28.09375 5.0625 -30.96875 C 6.0625 -33.84375 6.984375 -36.460938 7.828125 -38.828125 C 9.992188 -44.785156 11.972656 -49.28125 13.765625 -52.3125 C 15.554688 -55.351562 17.585938 -56.875 19.859375 -56.875 C 21.484375 -56.875 22.503906 -56.28125 22.921875 -55.09375 C 23.347656 -53.90625 22.957031 -52.019531 21.75 -49.4375 C 20.75 -47.164062 19.785156 -44.960938 18.859375 -42.828125 C 17.941406 -40.691406 17.242188 -38.703125 16.765625 -36.859375 C 16.609375 -36.328125 16.789062 -35.984375 17.3125 -35.828125 C 17.84375 -35.671875 18.375 -35.859375 18.90625 -36.390625 C 20.007812 -37.546875 21.140625 -38.359375 22.296875 -38.828125 C 23.460938 -39.304688 24.492188 -39.546875 25.390625 -39.546875 C 28.078125 -39.546875 30.1875 -38.6875 31.71875 -36.96875 C 33.25 -35.257812 34.015625 -32.375 34.015625 -28.3125 C 34.015625 -26.519531 33.867188 -24.753906 33.578125 -23.015625 C 33.285156 -21.273438 32.875 -19.585938 32.34375 -17.953125 C 33.40625 -18.109375 34.394531 -18.476562 35.3125 -19.0625 C 36.238281 -19.644531 37.097656 -20.515625 37.890625 -21.671875 Z M 12.34375 -20.640625 C 12.34375 -19.484375 12.65625 -18.484375 13.28125 -17.640625 C 13.914062 -16.796875 14.972656 -16.375 16.453125 -16.375 C 17.765625 -16.375 18.921875 -16.769531 19.921875 -17.5625 C 20.929688 -18.351562 21.722656 -19.3125 22.296875 -20.4375 C 22.878906 -21.570312 23.171875 -22.695312 23.171875 -23.8125 C 23.171875 -24.96875 22.828125 -25.953125 22.140625 -26.765625 C 21.460938 -27.585938 20.359375 -28 18.828125 -28 C 17.554688 -28 16.429688 -27.628906 15.453125 -26.890625 C 14.484375 -26.148438 13.722656 -25.210938 13.171875 -24.078125 C 12.617188 -22.953125 12.34375 -21.804688 12.34375 -20.640625 Z M 12.34375 -20.640625 "/></g></g></g><g fill="#ff66c4" fill-opacity="1"><g transform="translate(241.940754, 229.764539)"><g><path d="M 8.390625 0 C 5.691406 0 3.65625 -1.101562 2.28125 -3.3125 C 0.914062 -5.53125 0.234375 -8.40625 0.234375 -11.9375 C 0.234375 -14.15625 0.507812 -16.515625 1.0625 -19.015625 C 1.613281 -21.523438 2.429688 -23.992188 3.515625 -26.421875 C 4.597656 -28.847656 5.957031 -31.046875 7.59375 -33.015625 C 9.226562 -34.992188 11.125 -36.578125 13.28125 -37.765625 C 15.445312 -38.953125 17.898438 -39.546875 20.640625 -39.546875 C 22.222656 -39.546875 23.445312 -39.398438 24.3125 -39.109375 C 25.1875 -38.816406 25.847656 -38.457031 26.296875 -38.03125 C 26.742188 -37.613281 27.125 -37.257812 27.4375 -36.96875 C 27.757812 -36.6875 28.1875 -36.546875 28.71875 -36.546875 C 29.613281 -36.546875 30.335938 -36.796875 30.890625 -37.296875 C 31.441406 -37.796875 32.054688 -38.296875 32.734375 -38.796875 C 33.421875 -39.296875 34.375 -39.546875 35.59375 -39.546875 C 36.644531 -39.546875 37.367188 -39.28125 37.765625 -38.75 C 38.160156 -38.226562 38.359375 -37.519531 38.359375 -36.625 C 38.359375 -35.144531 37.945312 -33.679688 37.125 -32.234375 C 36.3125 -30.785156 35.457031 -28.898438 34.5625 -26.578125 C 33.25 -23.671875 32.757812 -21.453125 33.09375 -19.921875 C 33.4375 -18.398438 34.476562 -17.640625 36.21875 -17.640625 C 37.59375 -17.640625 38.78125 -17.992188 39.78125 -18.703125 C 40.78125 -19.410156 41.675781 -20.398438 42.46875 -21.671875 C 42.894531 -22.304688 43.4375 -22.53125 44.09375 -22.34375 C 44.75 -22.15625 45.300781 -21.796875 45.75 -21.265625 C 46.195312 -20.742188 46.289062 -20.21875 46.03125 -19.6875 C 45.082031 -17.84375 44.066406 -15.800781 42.984375 -13.5625 C 41.898438 -11.320312 40.695312 -9.171875 39.375 -7.109375 C 38.0625 -5.054688 36.5625 -3.359375 34.875 -2.015625 C 33.1875 -0.671875 31.238281 0 29.03125 0 C 26.289062 0 24.351562 -1.101562 23.21875 -3.3125 C 22.082031 -5.53125 21.75 -8.273438 22.21875 -11.546875 L 21.90625 -11.546875 C 20.320312 -8.328125 18.367188 -5.597656 16.046875 -3.359375 C 13.734375 -1.117188 11.179688 0 8.390625 0 Z M 16.296875 -16.375 C 17.660156 -16.375 18.859375 -16.769531 19.890625 -17.5625 C 20.921875 -18.351562 21.722656 -19.3125 22.296875 -20.4375 C 22.878906 -21.570312 23.171875 -22.695312 23.171875 -23.8125 C 23.171875 -25.125 22.800781 -26.148438 22.0625 -26.890625 C 21.320312 -27.628906 20.320312 -28 19.0625 -28 C 17.6875 -28 16.5 -27.628906 15.5 -26.890625 C 14.5 -26.148438 13.722656 -25.210938 13.171875 -24.078125 C 12.617188 -22.953125 12.34375 -21.804688 12.34375 -20.640625 C 12.34375 -19.328125 12.695312 -18.285156 13.40625 -17.515625 C 14.113281 -16.753906 15.078125 -16.375 16.296875 -16.375 Z M 16.296875 -16.375 "/></g></g></g><g fill="#ff66c4" fill-opacity="1"><g transform="translate(282.591239, 229.764539)"><g><path d="M 37.890625 -21.671875 C 38.203125 -22.148438 38.703125 -22.320312 39.390625 -22.1875 C 40.078125 -22.050781 40.671875 -21.757812 41.171875 -21.3125 C 41.671875 -20.863281 41.757812 -20.320312 41.4375 -19.6875 C 40.707031 -18.113281 39.75 -16.519531 38.5625 -14.90625 C 37.375 -13.300781 35.910156 -11.929688 34.171875 -10.796875 C 32.429688 -9.660156 30.296875 -9.015625 27.765625 -8.859375 C 25.804688 -6.171875 23.5625 -4.019531 21.03125 -2.40625 C 18.507812 -0.800781 15.953125 0 13.359375 0 C 10.097656 0 7.34375 -0.945312 5.09375 -2.84375 C 2.851562 -4.738281 1.390625 -7.320312 0.703125 -10.59375 C 0.0234375 -13.863281 0.394531 -17.554688 1.8125 -21.671875 C 2.976562 -24.992188 4.0625 -28.09375 5.0625 -30.96875 C 6.0625 -33.84375 6.984375 -36.460938 7.828125 -38.828125 C 9.992188 -44.785156 11.972656 -49.28125 13.765625 -52.3125 C 15.554688 -55.351562 17.585938 -56.875 19.859375 -56.875 C 21.484375 -56.875 22.503906 -56.28125 22.921875 -55.09375 C 23.347656 -53.90625 22.957031 -52.019531 21.75 -49.4375 C 20.75 -47.164062 19.785156 -44.960938 18.859375 -42.828125 C 17.941406 -40.691406 17.242188 -38.703125 16.765625 -36.859375 C 16.609375 -36.328125 16.789062 -35.984375 17.3125 -35.828125 C 17.84375 -35.671875 18.375 -35.859375 18.90625 -36.390625 C 20.007812 -37.546875 21.140625 -38.359375 22.296875 -38.828125 C 23.460938 -39.304688 24.492188 -39.546875 25.390625 -39.546875 C 28.078125 -39.546875 30.1875 -38.6875 31.71875 -36.96875 C 33.25 -35.257812 34.015625 -32.375 34.015625 -28.3125 C 34.015625 -26.519531 33.867188 -24.753906 33.578125 -23.015625 C 33.285156 -21.273438 32.875 -19.585938 32.34375 -17.953125 C 33.40625 -18.109375 34.394531 -18.476562 35.3125 -19.0625 C 36.238281 -19.644531 37.097656 -20.515625 37.890625 -21.671875 Z M 12.34375 -20.640625 C 12.34375 -19.484375 12.65625 -18.484375 13.28125 -17.640625 C 13.914062 -16.796875 14.972656 -16.375 16.453125 -16.375 C 17.765625 -16.375 18.921875 -16.769531 19.921875 -17.5625 C 20.929688 -18.351562 21.722656 -19.3125 22.296875 -20.4375 C 22.878906 -21.570312 23.171875 -22.695312 23.171875 -23.8125 C 23.171875 -24.96875 22.828125 -25.953125 22.140625 -26.765625 C 21.460938 -27.585938 20.359375 -28 18.828125 -28 C 17.554688 -28 16.429688 -27.628906 15.453125 -26.890625 C 14.484375 -26.148438 13.722656 -25.210938 13.171875 -24.078125 C 12.617188 -22.953125 12.34375 -21.804688 12.34375 -20.640625 Z M 12.34375 -20.640625 "/></g></g></g><g fill="#ff66c4" fill-opacity="1"><g transform="translate(318.654675, 229.764539)"><g><path d="M 14.875 0 C 11.707031 0 9.109375 -0.707031 7.078125 -2.125 C 5.046875 -3.550781 3.539062 -5.4375 2.5625 -7.78125 C 1.59375 -10.132812 1.117188 -12.71875 1.140625 -15.53125 C 1.171875 -18.351562 1.660156 -21.175781 2.609375 -24 C 3.554688 -26.820312 4.925781 -29.40625 6.71875 -31.75 C 8.507812 -34.101562 10.679688 -35.988281 13.234375 -37.40625 C 15.796875 -38.832031 18.6875 -39.546875 21.90625 -39.546875 C 24.382812 -39.546875 26.398438 -39.082031 27.953125 -38.15625 C 29.515625 -37.238281 30.660156 -36.015625 31.390625 -34.484375 C 32.128906 -32.953125 32.5 -31.316406 32.5 -29.578125 C 32.5 -27.679688 31.972656 -25.78125 30.921875 -23.875 C 29.867188 -21.976562 28.394531 -20.410156 26.5 -19.171875 C 24.601562 -17.941406 22.359375 -17.328125 19.765625 -17.328125 C 18.660156 -17.328125 17.582031 -17.40625 16.53125 -17.5625 C 15.476562 -17.71875 14.503906 -18.0625 13.609375 -18.59375 C 13.335938 -18.75 13.046875 -18.757812 12.734375 -18.625 C 12.421875 -18.488281 12.265625 -18.160156 12.265625 -17.640625 C 12.265625 -16.265625 13.066406 -15.222656 14.671875 -14.515625 C 16.273438 -13.804688 18.210938 -13.453125 20.484375 -13.453125 C 23.171875 -13.453125 25.953125 -14.132812 28.828125 -15.5 C 31.703125 -16.875 34.035156 -18.929688 35.828125 -21.671875 C 36.253906 -22.304688 36.804688 -22.53125 37.484375 -22.34375 C 38.171875 -22.15625 38.738281 -21.796875 39.1875 -21.265625 C 39.632812 -20.742188 39.703125 -20.21875 39.390625 -19.6875 C 35.910156 -13.257812 32.097656 -8.367188 27.953125 -5.015625 C 23.816406 -1.671875 19.457031 0 14.875 0 Z M 17.71875 -23.25 C 19.25 -23.25 20.445312 -23.738281 21.3125 -24.71875 C 22.1875 -25.695312 22.625 -26.6875 22.625 -27.6875 C 22.625 -28.582031 22.316406 -29.34375 21.703125 -29.96875 C 21.097656 -30.601562 20.191406 -30.921875 18.984375 -30.921875 C 17.453125 -30.921875 16.238281 -30.445312 15.34375 -29.5 C 14.445312 -28.550781 14 -27.550781 14 -26.5 C 14 -25.65625 14.300781 -24.898438 14.90625 -24.234375 C 15.507812 -23.578125 16.445312 -23.25 17.71875 -23.25 Z M 17.71875 -23.25 "/></g></g></g><g clip-path="url(#ec63cb2cf4)"><path fill="#000000" d="M 139.53125 176.6875 C 139.914062 177.070312 140.316406 177.4375 140.710938 177.804688 C 141.058594 178.128906 141.398438 178.457031 141.707031 178.816406 C 141.769531 178.886719 141.832031 178.964844 141.890625 179.039062 C 141.9375 179.097656 141.855469 178.992188 141.898438 179.050781 C 141.917969 179.070312 141.933594 179.09375 141.949219 179.117188 C 141.980469 179.15625 142.011719 179.199219 142.039062 179.242188 C 142.160156 179.410156 142.269531 179.589844 142.371094 179.769531 C 142.421875 179.863281 142.46875 179.957031 142.515625 180.054688 C 142.542969 180.105469 142.566406 180.160156 142.589844 180.210938 C 142.601562 180.238281 142.609375 180.261719 142.621094 180.285156 C 142.628906 180.300781 142.652344 180.355469 142.621094 180.28125 C 142.625 180.296875 142.632812 180.3125 142.636719 180.324219 C 142.734375 180.5625 142.820312 180.808594 142.890625 181.054688 C 142.933594 181.199219 143.082031 181.285156 143.230469 181.246094 C 143.371094 181.207031 143.464844 181.050781 143.421875 180.910156 C 143.261719 180.367188 143.050781 179.839844 142.765625 179.351562 C 142.519531 178.929688 142.214844 178.542969 141.882812 178.1875 C 141.265625 177.523438 140.5625 176.941406 139.921875 176.300781 C 139.8125 176.195312 139.636719 176.195312 139.53125 176.300781 C 139.425781 176.40625 139.425781 176.582031 139.53125 176.6875 Z M 139.53125 176.6875 " fill-opacity="1" fill-rule="nonzero"/></g><path fill="#ff3131" d="M 140.351562 175.246094 C 140.484375 176.171875 140.359375 176.964844 140.089844 177.632812 C 139.703125 179.09375 138.816406 181.003906 136.792969 182.074219 C 134.710938 183.179688 133.398438 183.386719 132.667969 183.363281 C 132.148438 183.351562 131.921875 183.21875 131.921875 183.21875 C 131.769531 183.019531 131.789062 182.6875 132.023438 182.320312 C 134.148438 178.28125 131.71875 175.59375 133.800781 173.300781 C 135.878906 171.007812 139.796875 171.425781 140.351562 175.246094 Z M 140.351562 175.246094 " fill-opacity="1" fill-rule="nonzero"/><path fill="#000000" d="M 135.972656 168.988281 C 135.949219 168.980469 135.925781 168.972656 135.902344 168.960938 C 135.910156 168.964844 135.933594 168.972656 135.972656 168.988281 Z M 135.972656 168.988281 " fill-opacity="1" fill-rule="nonzero"/><g clip-path="url(#3414d12fa4)"><path fill="#000000" d="M 136.011719 170.605469 C 136.238281 169.890625 135.664062 169.363281 135.46875 169.210938 C 135.433594 169.183594 135.414062 169.167969 135.40625 169.164062 C 135.152344 168.964844 134.972656 168.667969 134.925781 168.320312 C 134.828125 167.609375 135.324219 166.953125 136.035156 166.855469 C 136.746094 166.757812 137.402344 167.257812 137.5 167.96875 C 137.773438 169.328125 136.011719 170.605469 136.011719 170.605469 Z M 136.011719 170.605469 " fill-opacity="1" fill-rule="nonzero"/></g><g clip-path="url(#1c5bc90fa2)"><path fill="#ff3131" d="M 127.371094 184.058594 C 127.355469 184.066406 127.335938 184.070312 127.320312 184.078125 C 127.324219 184.078125 127.34375 184.070312 127.371094 184.058594 Z M 127.371094 184.058594 " fill-opacity="1" fill-rule="nonzero"/></g><path fill="#000000" d="M 133.609375 172.886719 C 133.359375 172.371094 132.769531 172.382812 132.582031 172.398438 C 132.546875 172.402344 132.527344 172.40625 132.523438 172.40625 C 132.277344 172.429688 132.023438 172.359375 131.816406 172.191406 C 131.390625 171.847656 131.324219 171.226562 131.667969 170.800781 C 132.007812 170.375 132.632812 170.308594 133.058594 170.652344 C 133.917969 171.261719 133.609375 172.886719 133.609375 172.886719 Z M 133.609375 172.886719 " fill-opacity="1" fill-rule="nonzero"/><path fill="#000000" d="M 134.828125 182.929688 C 135.484375 182.640625 135.96875 182.035156 136.328125 181.433594 C 136.78125 180.683594 137.089844 179.847656 137.316406 179.007812 C 137.554688 178.132812 137.707031 177.230469 137.757812 176.328125 C 137.78125 175.929688 137.78125 175.535156 137.753906 175.140625 C 137.726562 174.792969 137.679688 174.445312 137.582031 174.113281 C 137.578125 174.101562 137.574219 174.089844 137.574219 174.078125 C 137.539062 173.964844 137.417969 173.890625 137.300781 173.925781 C 137.1875 173.957031 137.113281 174.082031 137.148438 174.195312 C 137.195312 174.34375 137.226562 174.496094 137.253906 174.648438 C 137.261719 174.6875 137.265625 174.726562 137.273438 174.765625 C 137.277344 174.789062 137.277344 174.808594 137.28125 174.828125 C 137.289062 174.871094 137.273438 174.769531 137.28125 174.808594 C 137.28125 174.824219 137.285156 174.839844 137.285156 174.851562 C 137.296875 174.941406 137.304688 175.027344 137.3125 175.117188 C 137.34375 175.511719 137.339844 175.90625 137.320312 176.300781 C 137.308594 176.515625 137.289062 176.730469 137.265625 176.941406 C 137.261719 176.996094 137.253906 177.046875 137.25 177.101562 C 137.246094 177.125 137.242188 177.152344 137.238281 177.179688 C 137.238281 177.191406 137.234375 177.207031 137.234375 177.21875 C 137.226562 177.257812 137.242188 177.164062 137.230469 177.226562 C 137.214844 177.335938 137.199219 177.449219 137.183594 177.558594 C 137.109375 178.007812 137.011719 178.449219 136.894531 178.890625 C 136.777344 179.320312 136.636719 179.746094 136.46875 180.160156 C 136.460938 180.183594 136.449219 180.207031 136.441406 180.230469 C 136.433594 180.246094 136.398438 180.328125 136.429688 180.261719 C 136.40625 180.3125 136.382812 180.363281 136.363281 180.414062 C 136.320312 180.511719 136.273438 180.605469 136.226562 180.699219 C 136.140625 180.882812 136.042969 181.058594 135.9375 181.234375 C 135.84375 181.390625 135.742188 181.542969 135.632812 181.6875 C 135.625 181.695312 135.617188 181.703125 135.609375 181.714844 C 135.652344 181.65625 135.628906 181.691406 135.617188 181.703125 C 135.605469 181.722656 135.589844 181.738281 135.578125 181.753906 C 135.550781 181.789062 135.523438 181.820312 135.496094 181.855469 C 135.4375 181.917969 135.378906 181.984375 135.320312 182.046875 C 135.261719 182.101562 135.203125 182.15625 135.140625 182.210938 C 135.113281 182.234375 135.082031 182.261719 135.050781 182.285156 C 135.039062 182.292969 135.007812 182.316406 135.066406 182.273438 C 135.058594 182.28125 135.050781 182.285156 135.042969 182.292969 C 135.027344 182.300781 135.011719 182.3125 134.996094 182.324219 C 134.875 182.414062 134.742188 182.488281 134.605469 182.546875 C 134.496094 182.597656 134.472656 182.753906 134.527344 182.847656 C 134.59375 182.960938 134.71875 182.976562 134.828125 182.929688 Z M 134.828125 182.929688 " fill-opacity="1" fill-rule="nonzero"/><path fill="#000000" d="M 139.378906 171.65625 C 139.644531 171.214844 140.171875 171.273438 140.339844 171.304688 C 140.367188 171.308594 140.386719 171.3125 140.390625 171.316406 C 140.609375 171.355469 140.84375 171.3125 141.042969 171.183594 C 141.449219 170.910156 141.5625 170.359375 141.292969 169.949219 C 141.019531 169.542969 140.46875 169.429688 140.058594 169.699219 C 139.238281 170.175781 139.378906 171.65625 139.378906 171.65625 Z M 139.378906 171.65625 " fill-opacity="1" fill-rule="nonzero"/><g clip-path="url(#d44ae9c49f)"><path fill="#000000" d="M 110.195312 178.875 C 111.367188 180.773438 113.363281 181.960938 115.398438 182.742188 C 117.792969 183.664062 120.378906 184.074219 122.929688 184.246094 C 125.441406 184.417969 127.976562 184.335938 130.46875 183.988281 C 131.589844 183.832031 132.6875 183.59375 133.785156 183.308594 C 135.335938 182.90625 136.878906 182.425781 138.304688 181.6875 C 139.570312 181.03125 140.714844 180.148438 141.640625 179.0625 C 141.871094 178.796875 141.484375 178.40625 141.253906 178.675781 C 140.195312 179.914062 138.867188 180.847656 137.390625 181.523438 C 135.949219 182.183594 134.40625 182.585938 132.875 182.972656 C 130.664062 183.53125 128.382812 183.734375 126.101562 183.777344 C 123.507812 183.824219 120.886719 183.625 118.351562 183.050781 C 116.132812 182.550781 113.832031 181.738281 112.097656 180.246094 C 111.53125 179.757812 111.054688 179.222656 110.671875 178.597656 C 110.484375 178.296875 110.007812 178.574219 110.195312 178.875 Z M 110.195312 178.875 " fill-opacity="1" fill-rule="nonzero"/></g><g clip-path="url(#718da32d38)"><path fill="#000000" d="M 111.628906 176.730469 C 111.246094 177.113281 110.847656 177.480469 110.449219 177.847656 C 110.105469 178.167969 109.761719 178.496094 109.453125 178.855469 C 109.171875 179.1875 108.914062 179.542969 108.707031 179.921875 C 108.460938 180.371094 108.273438 180.851562 108.128906 181.339844 C 108.085938 181.484375 108.175781 181.636719 108.320312 181.675781 C 108.464844 181.71875 108.617188 181.628906 108.65625 181.484375 C 108.699219 181.339844 108.746094 181.199219 108.796875 181.058594 C 108.820312 180.992188 108.84375 180.929688 108.867188 180.863281 C 108.878906 180.832031 108.894531 180.804688 108.90625 180.773438 C 108.910156 180.757812 108.917969 180.742188 108.925781 180.726562 C 108.9375 180.699219 108.933594 180.707031 108.914062 180.746094 C 108.921875 180.738281 108.925781 180.726562 108.929688 180.71875 C 109.03125 180.480469 109.144531 180.253906 109.277344 180.035156 C 109.335938 179.929688 109.402344 179.828125 109.46875 179.730469 C 109.5 179.683594 109.535156 179.636719 109.566406 179.59375 C 109.582031 179.570312 109.601562 179.546875 109.617188 179.523438 C 109.632812 179.503906 109.703125 179.414062 109.640625 179.492188 C 109.78125 179.308594 109.933594 179.136719 110.09375 178.96875 C 110.703125 178.320312 111.390625 177.746094 112.019531 177.121094 C 112.125 177.011719 112.125 176.835938 112.019531 176.730469 C 111.914062 176.625 111.734375 176.625 111.628906 176.730469 Z M 111.628906 176.730469 " fill-opacity="1" fill-rule="nonzero"/></g><path fill="#0f0809" d="M 135.820312 168.09375 C 135.820312 168.265625 135.792969 168.414062 135.730469 168.539062 C 135.671875 168.664062 135.597656 168.722656 135.511719 168.722656 C 135.425781 168.722656 135.351562 168.664062 135.292969 168.539062 C 135.234375 168.414062 135.203125 168.265625 135.203125 168.09375 C 135.203125 167.917969 135.234375 167.769531 135.292969 167.644531 C 135.351562 167.523438 135.425781 167.460938 135.511719 167.460938 C 135.597656 167.460938 135.671875 167.523438 135.730469 167.644531 C 135.792969 167.769531 135.820312 167.917969 135.820312 168.09375 Z M 135.820312 168.09375 " fill-opacity="1" fill-rule="nonzero"/><path fill="#0f0809" d="M 132.195312 171.542969 C 132.261719 171.648438 132.300781 171.753906 132.308594 171.855469 C 132.316406 171.953125 132.296875 172.019531 132.242188 172.054688 C 132.1875 172.085938 132.121094 172.074219 132.035156 172.019531 C 131.953125 171.964844 131.875 171.886719 131.808594 171.777344 C 131.742188 171.667969 131.707031 171.5625 131.695312 171.464844 C 131.6875 171.363281 131.710938 171.296875 131.761719 171.265625 C 131.816406 171.234375 131.886719 171.242188 131.96875 171.296875 C 132.054688 171.351562 132.128906 171.433594 132.195312 171.542969 Z M 132.195312 171.542969 " fill-opacity="1" fill-rule="nonzero"/><path fill="#0f0809" d="M 140.386719 170.386719 C 140.300781 170.480469 140.210938 170.542969 140.117188 170.578125 C 140.023438 170.617188 139.953125 170.613281 139.90625 170.570312 C 139.863281 170.527344 139.855469 170.457031 139.882812 170.363281 C 139.910156 170.265625 139.96875 170.171875 140.054688 170.078125 C 140.140625 169.984375 140.230469 169.921875 140.324219 169.882812 C 140.417969 169.847656 140.488281 169.851562 140.535156 169.894531 C 140.582031 169.9375 140.589844 170.003906 140.558594 170.101562 C 140.53125 170.199219 140.472656 170.292969 140.386719 170.386719 Z M 140.386719 170.386719 " fill-opacity="1" fill-rule="nonzero"/></svg>